<svg width="64" height="64" viewBox="0 0 64 64" fill="none" xmlns="http://www.w3.org/2000/svg">
<path fill-rule="evenodd" clip-rule="evenodd" d="M62.1176 63.1216H1.88234C1.32792 63.1216 0.878418 62.6721 0.878418 62.1176V8.38599C0.878418 7.83158 1.32792 7.38207 1.88234 7.38207H8.49919V1.88234C8.49919 1.32792 8.94857 0.878418 9.50311 0.878418H44.2456C44.5095 0.878418 44.7656 0.982449 44.9558 1.17269L51.6716 7.89395C51.8616 8.08407 51.9653 8.33994 51.9653 8.60359V11.289C54.7317 11.7652 56.8375 14.1769 56.8375 17.0788C56.8375 19.0966 55.8209 20.8754 54.2725 21.9337V31.7853C54.2725 32.039 54.1764 32.2832 54.0036 32.4691L51.9653 34.6603V36.2191C54.6684 37.447 56.5543 40.1739 56.5543 43.3262C56.5543 46.0093 55.1882 48.3841 53.1147 49.7889C58.4868 51.4877 62.4994 56.2417 63.1159 62.011C63.1461 62.2942 63.0547 62.5769 62.8643 62.7888C62.6739 63.0006 62.4025 63.1216 62.1176 63.1216ZM35.621 9.38992H2.88626V61.1137H34.5162C35.4345 55.7521 39.3054 51.3984 44.395 49.7886C42.3227 48.3839 40.9565 46.0092 40.9565 43.3262C40.9565 41.6865 41.4668 40.1619 42.3367 38.9035V16.1058H36.6249C36.0704 16.1058 35.621 15.6563 35.621 15.1019V9.38992ZM43.2416 2.88626H10.507V7.38207H36.6249C36.8886 7.38207 37.1446 7.48598 37.3348 7.6761L44.0506 14.392C44.2407 14.5821 44.3446 14.8381 44.3446 15.1019V36.8982C45.5999 36.033 47.1193 35.5256 48.7536 35.5256C49.1629 35.5256 49.565 35.5574 49.9575 35.6186V34.6588L47.9194 32.4693C47.7465 32.2835 47.6504 32.0391 47.6504 31.7853V30.9281C47.6504 30.6447 47.7702 30.3744 47.9803 30.184L48.5515 29.6666L47.9803 29.1491C47.7701 28.9587 47.6502 28.6883 47.6504 28.4047C47.6504 28.1212 47.7705 27.8509 47.9807 27.6607L48.551 27.1446L47.9803 26.6276C47.7702 26.4374 47.6504 26.1671 47.6504 25.8836V21.9337C46.1019 20.8754 45.0852 19.0967 45.0852 17.0788C45.0852 14.1774 47.1903 11.7658 49.9575 11.2891V9.60752H44.2456C43.6912 9.60752 43.2416 9.15801 43.2416 8.60359V2.88626ZM48.5391 7.59967L45.2495 4.30744V7.59967H48.5391ZM50.9614 13.2113C48.8251 13.2118 47.0931 14.9437 47.0931 17.0788C47.0931 18.5535 47.9182 19.8338 49.1308 20.4876C49.4557 20.6628 49.6582 21.0022 49.6582 21.3712V25.4385L50.7209 26.4011C50.9309 26.5915 51.0508 26.8619 51.0507 27.1455C51.0507 27.429 50.9306 27.6993 50.7204 27.8896L50.1501 28.4056L50.7209 28.9226C50.9309 29.1128 51.0507 29.3831 51.0507 29.6666C51.0507 29.95 50.9309 30.2203 50.7209 30.4105L49.6582 31.3733V31.3904L50.9619 32.791L52.2646 31.3905V21.3712C52.2646 21.0022 52.4672 20.6628 52.7921 20.4876C54.0046 19.8338 54.8297 18.5535 54.8297 17.0788C54.8297 14.9435 53.0975 13.2113 50.9622 13.2113H50.9614ZM48.7536 49.1191C51.9464 49.1191 54.5464 46.5159 54.5464 43.3262C54.5464 40.1365 51.9464 37.5335 48.7536 37.5335C45.5641 37.5335 42.9643 40.1367 42.9643 43.3262C42.9643 46.5158 45.5641 49.1191 48.7536 49.1191ZM36.5582 61.1137H60.9497C59.813 55.4182 54.7855 51.127 48.7536 51.127C42.7249 51.127 37.6977 55.4183 36.5582 61.1137ZM37.6288 10.8097V14.0979H40.9169L37.6288 10.8097ZM52.4097 15.9015C52.4097 16.7005 51.7612 17.349 50.9622 17.349C50.1616 17.349 49.513 16.7005 49.513 15.9015C49.513 15.1009 50.1616 14.4523 50.9622 14.4523C51.7612 14.4523 52.4097 15.1009 52.4097 15.9015ZM6.76177 48.2634H13.4643C14.4981 48.2634 15.3428 49.1081 15.3428 50.1419V56.8444C15.3428 57.8782 14.4981 58.7229 13.4643 58.7229H6.76177C5.72799 58.7229 4.88331 57.8782 4.88331 56.8444V50.1419C4.88331 49.1081 5.72799 48.2634 6.76177 48.2634ZM6.89116 50.2712V56.715H13.335V50.2712H6.89116ZM7.61963 54.0305C7.22747 53.6391 7.22684 53.003 7.61825 52.6108C8.00965 52.2186 8.64576 52.218 9.03804 52.6094L9.7192 53.2893L11.1136 51.5648C11.4621 51.134 12.0947 51.067 12.5255 51.4153C12.9565 51.7638 13.0234 52.3964 12.675 52.8272L10.5797 55.4185C10.4009 55.6397 10.1365 55.7746 9.85247 55.7898C9.56836 55.8049 9.29128 55.6988 9.08987 55.4979L7.61963 54.0305ZM18.5179 52.4352C17.9638 52.4352 17.514 51.9853 17.514 51.4313C17.514 50.8772 17.9638 50.4273 18.5179 50.4273H30.5616C31.1157 50.4273 31.5655 50.8772 31.5655 51.4313C31.5655 51.9853 31.1157 52.4352 30.5616 52.4352H18.5179ZM18.5179 40.6737C17.9638 40.6737 17.514 40.224 17.514 39.6698C17.514 39.1158 17.9638 38.6659 18.5179 38.6659H30.5616C31.1157 38.6659 31.5655 39.1158 31.5655 39.6698C31.5655 40.224 31.1157 40.6737 30.5616 40.6737H18.5179ZM18.5179 56.5589C17.9638 56.5589 17.514 56.109 17.514 55.555C17.514 55.0008 17.9638 54.5511 18.5179 54.5511H33.866C34.4201 54.5511 34.8699 55.0008 34.8699 55.555C34.8699 56.109 34.4201 56.5589 33.866 56.5589H18.5179ZM6.76177 36.5019H13.4643C14.4981 36.5019 15.3428 37.3466 15.3428 38.3804V45.083C15.3428 46.1168 14.4981 46.9614 13.4643 46.9614H6.76177C5.72799 46.9614 4.88331 46.1168 4.88331 45.083V38.3804C4.88331 37.3466 5.72799 36.5019 6.76177 36.5019ZM6.89116 38.5098V44.9536H13.335V38.5098H6.89116ZM7.61963 42.2691C7.22747 41.8777 7.22684 41.2416 7.61825 40.8494C8.00965 40.4571 8.64576 40.4565 9.03804 40.8479L9.7192 41.5278L11.1136 39.8033C11.4621 39.3725 12.0947 39.3055 12.5255 39.654C12.9565 40.0024 13.0234 40.635 12.675 41.0658L10.5797 43.657C10.4009 43.8783 10.1365 44.0132 9.85247 44.0284C9.56836 44.0435 9.29128 43.9374 9.08987 43.7365L7.61963 42.2691ZM18.5179 44.7975C17.9638 44.7975 17.514 44.3476 17.514 43.7936C17.514 43.2394 17.9638 42.7896 18.5179 42.7896H37.6307C38.1848 42.7896 38.6347 43.2394 38.6347 43.7936C38.6347 44.3476 38.1848 44.7975 37.6307 44.7975H18.5179ZM14.7145 22.4477L12.2298 22.3514C11.8128 22.3354 11.4492 22.0629 11.3167 21.6672C11.1842 21.2716 11.3102 20.8351 11.6332 20.5711L21.9761 12.1159C22.3458 11.8136 22.8772 11.8136 23.2469 12.1159L33.5898 20.5711C33.9128 20.8351 34.039 21.2716 33.9063 21.6672C33.7738 22.0629 33.4102 22.3354 32.9932 22.3514L30.5085 22.4477V33.5789C30.5085 34.1334 30.059 34.5828 29.5046 34.5828H15.7184C15.164 34.5828 14.7145 34.1334 14.7145 33.5789V22.4477ZM28.5007 21.9147L22.6116 17.1004L16.7223 21.9147V32.575H19.0174V25.3627C19.0174 24.8081 19.4669 24.3588 20.0213 24.3588H25.2017C25.7561 24.3588 26.2056 24.8081 26.2056 25.3627V32.575H28.5007V21.9147ZM21.0252 32.575H24.1978V26.3666H21.0252V32.575ZM23.2469 15.0264L29.8961 20.462L30.2666 20.4477L22.6116 14.1898L14.9564 20.4477L15.3269 20.462L21.9761 15.0264C22.3458 14.7243 22.8772 14.7243 23.2469 15.0264Z" fill="#008080"/>
</svg>
