<svg width="44" height="37" viewBox="0 0 44 37" fill="none" xmlns="http://www.w3.org/2000/svg">
<path d="M25.4375 37V25.221C25.4375 18.4769 26.9958 12.9338 30.1125 8.59176C33.3208 4.1573 37.95 1.29338 44 0V7.62173C41.0667 8.3608 38.775 9.74657 37.125 11.779C35.475 13.7191 34.4667 16.1211 34.1 18.985H41.25V37H25.4375ZM0 37V25.221C0 18.4769 1.55833 12.9338 4.675 8.59176C7.88333 4.1573 12.5125 1.29338 18.5625 0V7.62173C15.6292 8.3608 13.3375 9.74657 11.6875 11.779C10.0375 13.7191 9.02917 16.1211 8.6625 18.985H15.8125V37H0Z" fill="#FAF9F6"/>
</svg>
