<svg width="32" height="32" viewBox="0 0 32 32" fill="none" xmlns="http://www.w3.org/2000/svg">
<path d="M27.1124 6.64175L21.0859 0.940375C20.4449 0.333937 19.6059 0 18.7236 0H7.25C5.35456 0 3.8125 1.54206 3.8125 3.4375V28.5625C3.8125 30.4579 5.35456 32 7.25 32H24.75C26.6454 32 28.1875 30.4579 28.1875 28.5625V9.13888C28.1875 8.19831 27.7956 7.28813 27.1124 6.64175ZM25.2913 7.5H20.625C20.4527 7.5 20.3125 7.35981 20.3125 7.1875V2.78975L25.2913 7.5ZM24.75 30.125H7.25C6.38844 30.125 5.6875 29.4241 5.6875 28.5625V3.4375C5.6875 2.57594 6.38844 1.875 7.25 1.875H18.4375V7.1875C18.4375 8.39369 19.4188 9.375 20.625 9.375H26.3125V28.5625C26.3125 29.4241 25.6116 30.125 24.75 30.125Z" fill="#008080"/>
<path d="M22.6875 12.5H8.9375C8.41975 12.5 8 12.9197 8 13.4375C8 13.9553 8.41975 14.375 8.9375 14.375H22.6875C23.2052 14.375 23.625 13.9553 23.625 13.4375C23.625 12.9197 23.2052 12.5 22.6875 12.5Z" fill="#008080"/>
<path d="M22.6875 17.5H8.9375C8.41975 17.5 8 17.9197 8 18.4375C8 18.9553 8.41975 19.375 8.9375 19.375H22.6875C23.2052 19.375 23.625 18.9553 23.625 18.4375C23.625 17.9197 23.2052 17.5 22.6875 17.5Z" fill="#008080"/>
<path d="M13.4825 22.5H8.9375C8.41975 22.5 8 22.9197 8 23.4375C8 23.9553 8.41975 24.375 8.9375 24.375H13.4825C14.0002 24.375 14.42 23.9553 14.42 23.4375C14.42 22.9197 14.0002 22.5 13.4825 22.5Z" fill="#008080"/>
</svg>
