<svg width="167" height="32" viewBox="0 0 167 32" fill="none" xmlns="http://www.w3.org/2000/svg">
<path d="M30.2763 4.43323C29.8467 3.08473 29.2643 2.11918 29.2396 2.0786C29.1442 1.92154 28.9476 1.83984 28.7695 1.8806C28.7234 1.89111 27.6238 2.14726 26.3553 2.77948C24.6428 3.63271 23.4466 4.77181 22.8955 6.07303C22.4368 7.15668 22.3709 8.48146 22.6964 9.94499C22.0032 9.17237 21.2234 8.49649 20.3733 7.92749C20.1137 7.41573 19.4274 6.15581 18.3545 4.83901C18.001 4.40551 17.3212 4.94952 17.6783 5.38736C18.4013 6.27483 18.9455 7.14763 19.2858 7.74724L15.3173 6.97517L11.5467 1.84256C11.9129 1.84763 12.2803 1.88296 12.6458 1.95451C13.8048 2.18095 14.9497 2.77006 16.0492 3.70518C16.4799 4.07165 17.0393 3.40464 16.6142 3.04324C15.3997 2.01031 14.1209 1.35671 12.8132 1.1011C10.817 0.71126 8.48885 1.22302 6.07972 2.58167C4.28413 3.59431 3.08338 4.70659 3.03328 4.75333C2.87263 4.90314 2.84704 5.17523 2.98154 5.35023C3.15762 5.71072 3.82489 7.01122 4.93561 8.41135C5.59035 9.23686 6.28085 9.94336 6.99513 10.524C6.79219 10.6937 6.5947 10.8712 6.40356 11.058C5.38269 12.0545 4.60106 13.23 4.08791 14.5151C3.63429 15.6506 3.39033 16.8721 3.37671 18.1311C3.3542 20.1899 3.95195 22.1755 5.10569 23.8737C6.23275 25.5323 7.80834 26.8058 9.66202 27.5563C10.1808 27.7659 10.5088 26.9607 9.98966 26.7506C9.31804 26.4786 8.68707 26.1303 8.10512 25.716C8.17954 25.304 8.35217 23.8215 7.36543 22.2868C7.22729 22.0721 7.64025 21.229 7.88675 20.7254C8.14124 20.2064 8.4039 19.6698 8.52661 19.1646C8.65694 18.6278 8.51027 18.1773 8.10276 17.8612C7.80362 17.6291 7.41208 17.509 7.06701 17.4031C6.84283 17.3342 6.58871 17.2563 6.49795 17.1808C6.31098 17.0245 6.00566 16.4468 5.76025 15.9828C5.48797 15.4682 5.22876 14.9783 4.9641 14.6767C5.55967 13.2652 6.51628 12.0161 7.71431 11.0605C8.80869 11.8045 10.0577 12.3179 11.3854 12.4219C9.84571 13.6124 9.34762 15.1329 10.0595 16.5933C10.8909 18.2987 12.6021 18.0262 14.1118 17.7862C14.373 17.7445 14.6433 17.7016 14.9021 17.6694C14.9992 17.6572 15.0285 17.6837 15.0481 17.7009C15.3786 17.9943 15.3688 19.3959 15.3617 20.4194C15.3521 21.8352 15.343 23.1724 15.8714 23.859C16.141 24.209 16.5206 24.388 16.9655 24.388C17.2321 24.388 17.5218 24.3238 17.8257 24.1938C19.1397 23.6322 20.5056 21.942 20.2973 20.6048C20.1152 19.4356 19.9947 18.6632 20.2787 18.0405C20.5414 17.4643 21.1764 16.9308 22.4268 16.25C22.5766 16.923 22.6521 17.6232 22.6443 18.3414C22.6176 20.7932 21.6356 23.0878 19.8794 24.8024C17.9166 26.7187 15.1581 27.665 12.4293 27.3648C11.8733 27.3047 11.7773 28.1681 12.334 28.2293C15.3209 28.5576 18.3408 27.5214 20.4886 25.4242C22.4114 23.5469 23.4864 21.035 23.5156 18.3507C23.5544 14.7916 21.7245 11.6384 18.9389 9.82199C19.5145 9.4124 19.9433 9.05825 20.1811 8.85264C21.1967 9.57979 22.0976 10.4756 22.8471 11.5192C24.6463 14.0251 25.3598 17.0799 24.8567 20.1214C23.8175 26.4 17.854 30.6649 11.5616 29.6274C8.51372 29.1251 5.84447 27.4686 4.04525 24.9628C2.24585 22.457 1.53229 19.4019 2.03565 16.3605C2.12604 15.8133 1.26691 15.6696 1.17615 16.2189C0.634676 19.4896 1.40232 22.7748 3.33678 25.4694C5.2716 28.1637 8.14233 29.9452 11.4197 30.4856C12.1051 30.5984 12.7912 30.6542 13.4727 30.6542C16.0484 30.6542 18.5541 29.8561 20.6893 28.3291C23.3898 26.3982 25.1751 23.5338 25.7162 20.2631C26.1128 17.8665 25.8058 15.462 24.8525 13.2878C25.2925 13.1583 26.0413 12.9068 26.8614 12.4982C28.5735 11.6449 29.7699 10.5058 30.3208 9.20462C30.8722 7.90303 30.8568 6.25309 30.2763 4.43323ZM4.98952 16.3886C5.31371 17.002 5.6203 17.5817 5.93886 17.8476C6.16449 18.0358 6.47852 18.1322 6.81089 18.2342C7.6624 18.4954 7.76132 18.6237 7.67964 18.9597C7.57944 19.3729 7.33766 19.8664 7.10404 20.3434C6.65405 21.2622 6.22912 22.1295 6.63191 22.7563C7.20315 23.6447 7.30099 24.5193 7.29119 25.0633C4.69618 22.7281 3.63955 19.0396 4.60615 15.6872C4.7343 15.9064 4.86899 16.1611 4.98952 16.3886ZM26.0685 7.84416L24.8304 4.8497C25.4328 4.2874 26.1318 3.86423 26.7272 3.56623C27.2344 3.31226 27.7169 3.12241 28.1039 2.98781L26.0685 7.84416ZM28.9071 3.32494C29.0801 3.69594 29.2807 4.17436 29.452 4.7151C29.6399 5.30856 29.8123 6.04404 29.8467 6.81123L26.9451 8.00593L28.9071 3.32494ZM23.698 6.4116C23.8265 6.10835 23.9926 5.8272 24.1845 5.56761L25.594 8.976L24.3292 11.9944C24.1515 11.6181 23.9422 11.1239 23.7646 10.5625C23.4083 9.43849 23.1077 7.80557 23.698 6.4116ZM26.4893 11.7114C26.0012 11.956 25.5354 12.1411 25.156 12.2746L26.4686 9.14303L29.8096 7.76717C29.7612 8.14071 29.6688 8.51098 29.5183 8.86604C28.9282 10.26 27.5453 11.183 26.4893 11.7114ZM10.7793 11.464C10.6253 11.4339 10.4734 11.3971 10.3237 11.3553L15.1455 7.82786L19.1159 8.60011C17.6696 9.73739 14.1497 12.123 10.7793 11.464ZM6.37252 8.74358C5.3413 7.63438 4.58545 6.44838 4.15144 5.68898L9.20404 6.6721L6.37252 8.74358ZM7.26487 2.94252L9.37885 5.82014L4.29357 4.83086C4.93379 4.32635 5.9906 3.56895 7.26487 2.94252ZM10.6393 6.06542L8.07644 2.57659C8.84373 2.26193 9.66728 2.01429 10.5115 1.90415L14.057 6.73007L10.6393 6.06542ZM10.3681 6.89854L13.9816 7.60142L9.34399 10.9939C8.46943 10.5908 7.68236 10.0113 6.99368 9.36711L10.3681 6.89854ZM22.1901 15.3892C20.6195 16.2243 19.8504 16.8803 19.4855 17.6804C19.0936 18.5396 19.2372 19.4619 19.4359 20.7383C19.5534 21.491 18.657 22.8925 17.4826 23.3945C17.0481 23.5802 16.7386 23.5583 16.5623 23.3291C16.2162 22.8795 16.2256 21.5187 16.233 20.4254C16.2434 18.9128 16.2525 17.6065 15.6271 17.0513C15.4022 16.8516 15.1145 16.7672 14.7949 16.8063C14.5209 16.8404 14.243 16.8846 13.9746 16.9274C12.373 17.1821 11.3652 17.284 10.8432 16.2129C9.99728 14.478 11.7096 13.1929 12.485 12.721C12.6429 12.625 12.7894 12.5117 12.9256 12.3857C14.7998 12.1621 16.5707 11.3596 18.1488 10.3544C20.041 11.4826 21.4935 13.2681 22.1901 15.3892Z" fill="#FAF9F6"/>
<path d="M166.038 22.5761C165.133 22.5761 164.435 22.3126 163.945 21.7856C163.455 21.2587 163.21 20.5059 163.21 19.5272V13.7872H161.343V12.3757H161.814C162.242 12.3757 162.581 12.2377 162.832 11.9616C163.084 11.6731 163.21 11.3155 163.21 10.8889V10.042H164.624V12.3757H166.849V13.7872H164.624V19.5272C164.624 19.866 164.674 20.1671 164.775 20.4306C164.875 20.6815 165.045 20.8823 165.284 21.0328C165.535 21.1834 165.869 21.2587 166.283 21.2587C166.384 21.2587 166.503 21.2524 166.642 21.2399C166.78 21.2273 166.899 21.2148 167 21.2022V22.4632C166.849 22.5008 166.679 22.5259 166.491 22.5384C166.302 22.5635 166.151 22.5761 166.038 22.5761Z" fill="#FAF9F6"/>
<path d="M151.362 22.4632V12.3757H152.776V14.333L152.456 14.2577C152.707 13.6053 153.116 13.0909 153.682 12.7145C154.26 12.3381 154.926 12.1499 155.681 12.1499C156.397 12.1499 157.038 12.313 157.604 12.6392C158.182 12.9654 158.635 13.4171 158.962 13.9943C159.301 14.5589 159.471 15.1987 159.471 15.9139V22.4632H158.057V16.4597C158.057 15.8449 157.944 15.3242 157.717 14.8976C157.504 14.471 157.195 14.1448 156.793 13.919C156.403 13.6806 155.951 13.5614 155.435 13.5614C154.92 13.5614 154.461 13.6806 154.059 13.919C153.656 14.1448 153.342 14.4773 153.116 14.9164C152.89 15.343 152.776 15.8574 152.776 16.4597V22.4632H151.362Z" fill="#FAF9F6"/>
<path d="M144.361 22.6891C143.418 22.6891 142.564 22.4632 141.797 22.0116C141.042 21.5473 140.445 20.9137 140.005 20.1107C139.565 19.3078 139.345 18.3981 139.345 17.3818C139.345 16.3656 139.559 15.4685 139.986 14.6906C140.414 13.9002 140.992 13.2791 141.721 12.8274C142.463 12.3757 143.293 12.1499 144.21 12.1499C144.94 12.1499 145.587 12.2879 146.153 12.5639C146.731 12.8274 147.221 13.1913 147.624 13.6555C148.026 14.1072 148.334 14.6216 148.548 15.1987C148.762 15.7633 148.868 16.3468 148.868 16.949C148.868 17.0745 148.862 17.2187 148.85 17.3818C148.837 17.5324 148.818 17.6892 148.793 17.8523H140.25V16.535H147.982L147.303 17.0995C147.416 16.4095 147.335 15.7947 147.058 15.2552C146.794 14.7031 146.411 14.2703 145.908 13.9566C145.405 13.6304 144.839 13.4673 144.21 13.4673C143.582 13.4673 142.997 13.6304 142.457 13.9566C141.929 14.2828 141.514 14.7408 141.212 15.3305C140.91 15.9076 140.791 16.5977 140.854 17.4007C140.791 18.2037 140.917 18.9063 141.231 19.5085C141.558 20.0982 141.998 20.5561 142.551 20.8824C143.117 21.2086 143.72 21.3717 144.361 21.3717C145.103 21.3717 145.725 21.196 146.228 20.8447C146.731 20.4934 147.14 20.0543 147.454 19.5273L148.661 20.1672C148.46 20.6189 148.152 21.0392 147.737 21.4281C147.322 21.8045 146.825 22.1119 146.247 22.3503C145.681 22.5762 145.053 22.6891 144.361 22.6891Z" fill="#FAF9F6"/>
<path d="M122.633 22.4632V12.3757H124.047V14.2954L123.821 14.0131C124.098 13.4234 124.506 12.9654 125.047 12.6392C125.6 12.313 126.204 12.1499 126.857 12.1499C127.637 12.1499 128.341 12.3695 128.969 12.8086C129.598 13.2477 130.044 13.8186 130.308 14.5212L129.912 14.54C130.164 13.7621 130.597 13.1725 131.213 12.771C131.842 12.3569 132.534 12.1499 133.288 12.1499C133.967 12.1499 134.589 12.313 135.155 12.6392C135.733 12.9654 136.192 13.4171 136.531 13.9943C136.883 14.5589 137.059 15.1987 137.059 15.9139V22.4632H135.645V16.4597C135.645 15.8449 135.532 15.3242 135.306 14.8976C135.092 14.471 134.797 14.1448 134.419 13.919C134.042 13.6806 133.608 13.5614 133.118 13.5614C132.64 13.5614 132.207 13.6806 131.817 13.919C131.427 14.1448 131.119 14.4773 130.893 14.9164C130.667 15.343 130.553 15.8574 130.553 16.4597V22.4632H129.139V16.4597C129.139 15.8449 129.026 15.3242 128.8 14.8976C128.586 14.471 128.29 14.1448 127.913 13.919C127.536 13.6806 127.102 13.5614 126.612 13.5614C126.122 13.5614 125.682 13.6806 125.292 13.919C124.915 14.1448 124.613 14.4773 124.387 14.9164C124.161 15.343 124.047 15.8574 124.047 16.4597V22.4632H122.633Z" fill="#FAF9F6"/>
<path d="M119.188 22.5761C118.283 22.5761 117.585 22.3126 117.095 21.7856C116.604 21.2587 116.359 20.5059 116.359 19.5272V13.7872H114.492V12.3757H114.964C115.391 12.3757 115.731 12.2377 115.982 11.9616C116.233 11.6731 116.359 11.3155 116.359 10.8889V10.042H117.773V12.3757H119.999V13.7872H117.773V19.5272C117.773 19.866 117.824 20.1671 117.924 20.4306C118.025 20.6815 118.195 20.8823 118.434 21.0328C118.685 21.1834 119.018 21.2587 119.433 21.2587C119.534 21.2587 119.653 21.2524 119.791 21.2399C119.93 21.2273 120.049 21.2148 120.15 21.2022V22.4632C119.999 22.5008 119.829 22.5259 119.64 22.5384C119.452 22.5635 119.301 22.5761 119.188 22.5761Z" fill="#FAF9F6"/>
<path d="M109.235 22.6891C108.267 22.6891 107.418 22.4444 106.689 21.9551C105.96 21.4658 105.432 20.8008 105.105 19.9602L106.293 19.3956C106.582 20.0104 106.984 20.4997 107.5 20.8635C108.028 21.2274 108.606 21.4093 109.235 21.4093C109.838 21.4093 110.347 21.265 110.762 20.9765C111.177 20.6753 111.385 20.2864 111.385 19.8096C111.385 19.4583 111.284 19.1823 111.083 18.9815C110.882 18.7683 110.649 18.6051 110.385 18.4922C110.121 18.3793 109.889 18.2978 109.687 18.2476L108.235 17.8335C107.305 17.57 106.632 17.1999 106.217 16.7232C105.803 16.2464 105.595 15.6943 105.595 15.067C105.595 14.4773 105.746 13.9629 106.048 13.5238C106.349 13.0846 106.758 12.7459 107.274 12.5075C107.789 12.2691 108.361 12.1499 108.99 12.1499C109.845 12.1499 110.618 12.3757 111.309 12.8274C112.013 13.2666 112.51 13.8813 112.799 14.6718L111.592 15.2364C111.341 14.6718 110.976 14.2326 110.498 13.919C110.033 13.5928 109.511 13.4297 108.933 13.4297C108.367 13.4297 107.915 13.5739 107.575 13.8625C107.236 14.1511 107.066 14.5149 107.066 14.9541C107.066 15.2928 107.154 15.5626 107.33 15.7633C107.506 15.9641 107.707 16.1146 107.934 16.215C108.172 16.3154 108.38 16.3907 108.556 16.4409L110.234 16.9302C111.051 17.1686 111.686 17.5387 112.139 18.0405C112.604 18.5424 112.837 19.1321 112.837 19.8096C112.837 20.3617 112.68 20.8573 112.365 21.2964C112.063 21.7355 111.642 22.0806 111.102 22.3315C110.561 22.5699 109.939 22.6891 109.235 22.6891Z" fill="#FAF9F6"/>
<path d="M98.7264 22.6891C97.7835 22.6891 96.9286 22.4632 96.1617 22.0116C95.4074 21.5473 94.8102 20.9137 94.3702 20.1107C93.9302 19.3078 93.7101 18.3981 93.7101 17.3818C93.7101 16.3656 93.9239 15.4685 94.3513 14.6906C94.7788 13.9002 95.3571 13.2791 96.0863 12.8274C96.828 12.3757 97.6578 12.1499 98.5755 12.1499C99.3047 12.1499 99.9522 12.2879 100.518 12.5639C101.096 12.8274 101.587 13.1913 101.989 13.6555C102.391 14.1072 102.699 14.6216 102.913 15.1987C103.127 15.7633 103.233 16.3468 103.233 16.949C103.233 17.0745 103.227 17.2187 103.215 17.3818C103.202 17.5324 103.183 17.6892 103.158 17.8523H94.6153V16.535H102.347L101.668 17.0995C101.781 16.4095 101.7 15.7947 101.423 15.2552C101.159 14.7031 100.776 14.2703 100.273 13.9566C99.7699 13.6304 99.2041 13.4673 98.5755 13.4673C97.9469 13.4673 97.3623 13.6304 96.8217 13.9566C96.2937 14.2828 95.8788 14.7408 95.5771 15.3305C95.2754 15.9076 95.1559 16.5977 95.2188 17.4007C95.1559 18.2037 95.2817 18.9063 95.596 19.5085C95.9228 20.0982 96.3628 20.5561 96.916 20.8824C97.4818 21.2086 98.0852 21.3717 98.7264 21.3717C99.4681 21.3717 100.09 21.196 100.593 20.8447C101.096 20.4934 101.505 20.0543 101.819 19.5273L103.026 20.1672C102.825 20.6189 102.517 21.0392 102.102 21.4281C101.687 21.8045 101.191 22.1119 100.612 22.3503C100.046 22.5762 99.4178 22.6891 98.7264 22.6891Z" fill="#FAF9F6"/>
<path d="M87.2638 22.4635L83.3224 12.376H84.9065L88.2255 21.2214H87.7164L91.0543 12.376H92.6572L88.6781 22.4635H87.2638Z" fill="#FAF9F6"/>
<path d="M73.941 22.4632V12.3757H75.3554V14.333L75.0348 14.2577C75.2862 13.6053 75.6948 13.0909 76.2606 12.7145C76.8389 12.3381 77.5052 12.1499 78.2595 12.1499C78.9761 12.1499 79.6173 12.313 80.1831 12.6392C80.7614 12.9654 81.214 13.4171 81.5408 13.9943C81.8803 14.5589 82.05 15.1987 82.05 15.9139V22.4632H80.6357V16.4597C80.6357 15.8449 80.5225 15.3242 80.2962 14.8976C80.0825 14.471 79.7745 14.1448 79.3722 13.919C78.9824 13.6806 78.5298 13.5614 78.0144 13.5614C77.4989 13.5614 77.04 13.6806 76.6377 13.919C76.2354 14.1448 75.9211 14.4773 75.6948 14.9164C75.4685 15.343 75.3554 15.8574 75.3554 16.4597V22.4632H73.941Z" fill="#FAF9F6"/>
<path d="M69.3234 22.4632V8.44238H70.8321V22.4632H69.3234Z" fill="#FAF9F6"/>
<path d="M52.365 22.4632L57.4944 8.44238H59.1162L64.2456 22.4632H62.6615L61.4546 19.038H55.1748L53.9491 22.4632H52.365ZM55.6651 17.6265H60.9265L58.079 9.57158H58.5316L55.6651 17.6265Z" fill="#FAF9F6"/>
<path d="M46.3441 22.4632V20.9577H47.0984C47.8024 20.9577 48.3556 20.7506 48.7579 20.3366C49.1602 19.91 49.3613 19.3329 49.3613 18.6052V8.44238H50.87V18.6052C50.87 19.3956 50.7128 20.0794 50.3985 20.6565C50.0968 21.2337 49.6631 21.6791 49.0973 21.9927C48.5316 22.3064 47.8653 22.4632 47.0984 22.4632H46.3441Z" fill="#FAF9F6"/>
<path d="M39.1249 22.4632V20.9577H39.8792C40.5832 20.9577 41.1364 20.7506 41.5387 20.3366C41.941 19.91 42.1422 19.3329 42.1422 18.6052V8.44238H43.6508V18.6052C43.6508 19.3956 43.4937 20.0794 43.1794 20.6565C42.8776 21.2337 42.4439 21.6791 41.8782 21.9927C41.3124 22.3064 40.6461 22.4632 39.8792 22.4632H39.1249Z" fill="#FAF9F6"/>
</svg>
