<svg width="64" height="64" viewBox="0 0 64 64" fill="none" xmlns="http://www.w3.org/2000/svg">
<path d="M59 22H56V13C56 12.8052 55.9431 12.6146 55.8363 12.4517C55.7294 12.2888 55.5773 12.1606 55.3987 12.0829L32.3987 2.08295C32.2729 2.02823 32.1372 2 32 2C31.8628 2 31.7271 2.02823 31.6013 2.08295L8.60132 12.0829C8.42266 12.1606 8.27057 12.2888 8.16375 12.4517C8.05692 12.6146 8.00001 12.8052 8 13V32.7489L2.47595 36.1483C2.33049 36.2378 2.21038 36.3631 2.12706 36.5122C2.04374 36.6613 2 36.8292 2 37V61C2 61.2652 2.10536 61.5196 2.2929 61.7071C2.48043 61.8946 2.73478 62 3 62H29C29.1314 62.0002 29.2616 61.9743 29.383 61.924C29.5044 61.8737 29.6146 61.7999 29.7074 61.7068C30.1108 61.9003 30.5526 62.0005 31 62H57V60H31C30.7349 59.9997 30.4807 59.8942 30.2932 59.7068C30.1058 59.5193 30.0003 59.2651 30 59V25C30.0003 24.7349 30.1058 24.4807 30.2932 24.2932C30.4807 24.1058 30.7349 24.0003 31 24H39V26H33C32.7348 26 32.4804 26.1054 32.2929 26.2929C32.1054 26.4804 32 26.7348 32 27V57C32 57.2652 32.1054 57.5196 32.2929 57.7071C32.4804 57.8946 32.7348 58 33 58H47V56H34V28H39V29C39 29.2652 39.1054 29.5196 39.2929 29.7071C39.4804 29.8946 39.7348 30 40 30H50C50.2652 30 50.5196 29.8946 50.7071 29.7071C50.8946 29.5196 51 29.2652 51 29V28H56V45H58V27C58 26.7348 57.8946 26.4804 57.7071 26.2929C57.5196 26.1054 57.2652 26 57 26H51V24H59C59.2651 24.0003 59.5193 24.1058 59.7068 24.2932C59.8942 24.4807 59.9997 24.7349 60 25V57H62V25C61.9991 24.2046 61.6827 23.4421 61.1203 22.8797C60.5579 22.3173 59.7954 22.0009 59 22ZM20 60H12V46H20V60ZM28 59V60H22V45C22 44.7348 21.8946 44.4804 21.7071 44.2929C21.5196 44.1054 21.2652 44 21 44H11C10.7348 44 10.4804 44.1054 10.2929 44.2929C10.1054 44.4804 10 44.7348 10 45V60H4V37.5588L16 30.1742L28 37.5588V59ZM35 22H31C30.2615 21.9995 29.549 22.2725 29 22.7663V14H35V22ZM39.7639 22H37V14H43V18.5377C42.4872 18.8344 42.0466 19.241 41.7097 19.7283C41.3728 20.2156 41.1481 20.7716 41.0518 21.3561L39.7639 22ZM49 28H41V23.618L42.4473 22.8944C42.6134 22.8114 42.753 22.6837 42.8507 22.5257C42.9483 22.3677 43 22.1857 43 22C43 21.4696 43.2107 20.9609 43.5858 20.5858C43.9609 20.2107 44.4696 20 45 20C45.5304 20 46.0391 20.2107 46.4142 20.5858C46.7893 20.9609 47 21.4696 47 22C47 22.1857 47.0517 22.3677 47.1493 22.5257C47.247 22.6837 47.3866 22.8114 47.5527 22.8944L49 23.618V28ZM54 22H50.2361L48.9482 21.3561C48.7942 20.4197 48.3128 19.5684 47.5897 18.9538C46.8667 18.3392 45.949 18.0012 45 18V13C45 12.7348 44.8946 12.4804 44.7071 12.2929C44.5196 12.1054 44.2652 12 44 12H20C19.7348 12 19.4804 12.1054 19.2929 12.2929C19.1054 12.4804 19 12.7348 19 13V25C19 25.2652 19.1054 25.5196 19.2929 25.7071C19.4804 25.8946 19.7348 26 20 26H28V35.2104L16.524 28.1483C16.3665 28.0513 16.185 28 16 28C15.815 28 15.6335 28.0513 15.476 28.1483L10 31.5181V13.6556L32 4.09045L54 13.6556V22ZM27 14V24H21V14H27Z" fill="#008080"/>
<path d="M15.4855 33.1425L10.4855 36.1425C10.3374 36.2314 10.2149 36.3571 10.1298 36.5074C10.0447 36.6576 10 36.8274 10 37V41C10 41.2652 10.1054 41.5196 10.2929 41.7071C10.4804 41.8947 10.7348 42 11 42H21C21.2652 42 21.5196 41.8947 21.7071 41.7071C21.8946 41.5196 22 41.2652 22 41V37C22 36.8274 21.9553 36.6576 21.8702 36.5074C21.7851 36.3571 21.6626 36.2314 21.5145 36.1425L16.5145 33.1425C16.3591 33.0493 16.1813 33 16 33C15.8187 33 15.6409 33.0493 15.4855 33.1425ZM20 37.5662V40H12V37.5662L16 35.1662L20 37.5662Z" fill="#008080"/>
<path d="M57 50C57.0006 48.6853 56.5695 47.4068 55.7731 46.3608C54.9766 45.3148 53.8588 44.5593 52.5913 44.2101C51.3239 43.861 49.9768 43.9377 48.7571 44.4283C47.5374 44.919 46.5125 45.7964 45.8399 46.926C45.1672 48.0556 44.884 49.3747 45.0337 50.6809C45.1834 51.987 45.7578 53.2079 46.6686 54.1559C47.5794 55.104 48.7762 55.7268 50.0753 55.9287C51.3744 56.1307 52.7038 55.9005 53.8595 55.2737L60.2928 61.7071L61.7071 60.2929L55.4427 54.0284C56.4458 52.9267 57.0012 51.49 57 50ZM51 54C50.2089 54 49.4355 53.7654 48.7777 53.3259C48.1199 52.8863 47.6072 52.2616 47.3045 51.5307C47.0017 50.7998 46.9225 49.9955 47.0768 49.2196C47.2312 48.4437 47.6121 47.731 48.1716 47.1716C48.731 46.6121 49.4437 46.2312 50.2196 46.0768C50.9955 45.9225 51.7998 46.0017 52.5307 46.3045C53.2616 46.6072 53.8863 47.1199 54.3259 47.7777C54.7654 48.4355 55 49.2089 55 50C54.9988 51.0605 54.577 52.0772 53.8271 52.8271C53.0772 53.577 52.0605 53.9988 51 54Z" fill="#008080"/>
<path d="M43.2928 31.2929L39 35.5858L37.7072 34.2929L36.2928 35.7071L38.2928 37.7071C38.4804 37.8946 38.7348 38 39 38C39.2652 38 39.5196 37.8946 39.7072 37.7071L44.7072 32.7071L43.2928 31.2929Z" fill="#008080"/>
<path d="M54 33H46V35H54V33Z" fill="#008080"/>
<path d="M43.2928 38.2929L39 42.5858L37.7072 41.2929L36.2928 42.7071L38.2928 44.7071C38.4804 44.8946 38.7348 45 39 45C39.2652 45 39.5196 44.8946 39.7072 44.7071L44.7072 39.7071L43.2928 38.2929Z" fill="#008080"/>
<path d="M54 39H46V41H54V39Z" fill="#008080"/>
<path d="M37.7072 48.2929L36.2928 49.7071L38.2928 51.7071C38.4804 51.8946 38.7348 52 39 52C39.2652 52 39.5196 51.8946 39.7072 51.7071L44.7072 46.7071L43.2928 45.2929L39 49.5858L37.7072 48.2929Z" fill="#008080"/>
</svg>
