<svg width="95" height="80" viewBox="0 0 95 80" fill="none" xmlns="http://www.w3.org/2000/svg">
<path d="M40.0781 -4.80142e-06L40.0781 25.4682C40.0781 40.0499 36.7136 52.0349 29.9844 61.4232C23.0573 71.0112 13.0625 77.2035 0 80L1.44068e-06 63.5206C6.33334 61.9226 11.2813 58.9263 14.8438 54.5318C18.4063 50.3371 20.5833 45.1436 21.375 38.9513L5.93751 38.9513L5.93751 -7.78609e-06L40.0781 -4.80142e-06ZM95 0L95 25.4682C95 40.0499 91.6354 52.0349 84.9063 61.4232C77.9792 71.0112 67.9844 77.2035 54.9219 80L54.9219 63.5206C61.2552 61.9226 66.2031 58.9263 69.7656 54.5318C73.3281 50.3371 75.5052 45.1436 76.2969 38.9513L60.8594 38.9513L60.8594 -2.98467e-06L95 0Z" fill="#0E0E0E" fill-opacity="0.04"/>
</svg>
