<svg width="64" height="64" viewBox="0 0 64 64" fill="none" xmlns="http://www.w3.org/2000/svg">
<path d="M43.9425 50.436C42.5576 49.5867 41.144 48.7479 39.7187 47.918C39.7172 47.9171 39.7157 47.9161 39.7142 47.9154C37.2148 46.46 34.6795 45.0345 32.189 43.6379V42.2556C32.3046 42.1154 32.4192 41.9729 32.5317 41.8265C33.8318 40.1334 34.8095 38.1754 35.4262 36.0742C37.6141 35.2875 39.2623 33.007 39.2623 30.6525C39.2623 29.4362 38.8163 28.3625 38.0063 27.6287C37.6361 27.2934 37.205 27.0451 36.7351 26.8881C37.5991 24.7546 38.0847 22.6017 38.0847 20.6792C38.0847 13.4454 31.8933 7.5601 24.2831 7.5601C16.6728 7.5601 10.4813 13.4455 10.4813 20.6794C10.4813 22.601 10.9675 24.7537 11.8323 26.8876C11.3491 27.0492 10.908 27.3082 10.532 27.657C9.74209 28.3894 9.30722 29.4531 9.30722 30.6525C9.30722 33.0067 10.9552 35.2871 13.1428 36.074C13.7592 38.1752 14.7365 40.1334 16.036 41.8264C16.1558 41.9826 16.2781 42.1345 16.4017 42.2837V43.6239C12.4658 45.8339 8.40772 48.1162 4.62784 50.4355C3.16722 51.3291 2.32947 52.8233 2.32947 54.5354V62.5776C2.32947 63.0591 2.71984 63.4494 3.20122 63.4494C3.68259 63.4494 4.07297 63.0591 4.07297 62.5776V54.5354C4.07297 53.4284 4.59309 52.5005 5.53859 51.9222C6.47572 51.3472 7.43122 50.774 8.39834 50.2031V62.5776C8.39834 63.0591 8.78872 63.4494 9.27009 63.4494C9.75159 63.4494 10.1418 63.0591 10.1418 62.5776V49.1835C11.3178 48.5015 12.505 47.8234 13.6926 47.1507V56.9792C13.6926 57.4607 14.0828 57.851 14.5643 57.851H34.0052C34.4867 57.851 34.877 57.4607 34.877 56.9792V47.1517C36.0626 47.823 37.2491 48.4999 38.4277 49.1836V62.5776C38.4277 63.0591 38.818 63.4494 39.2995 63.4494C39.781 63.4494 40.1712 63.0591 40.1712 62.5776V50.2039C41.135 50.7729 42.0906 51.3457 43.0317 51.9229C43.9763 52.5006 44.4965 53.4285 44.4965 54.5354V62.5776C44.4965 63.0591 44.8867 63.4494 45.3682 63.4494C45.8497 63.4494 46.24 63.0591 46.24 62.5776V54.5354C46.2402 52.8233 45.4023 51.329 43.9425 50.436ZM18.1452 44.1245C18.1452 44.1227 18.1452 44.1211 18.1452 44.1194V44.059C20.0377 45.6662 22.1782 46.5514 24.283 46.5514C26.3966 46.5514 28.5466 45.6589 30.4455 44.0389V44.1341V44.1389V44.1484C30.4455 47.5405 27.6857 50.3002 24.2936 50.3002C20.9033 50.3002 18.1452 47.5405 18.1452 44.1484V44.1245ZM12.9298 24.7774C16.0105 22.7369 20.0143 21.6184 24.283 21.6184C28.553 21.6184 32.5572 22.7364 35.6377 24.7761C34.8836 27.1601 33.5655 29.6366 31.8907 31.7171C29.6315 30.2952 27.0181 29.5475 24.283 29.5475C21.5498 29.5475 18.9377 30.2952 16.6787 31.7171C15.0036 29.6361 13.6847 27.1601 12.9298 24.7774ZM37.5188 30.6526C37.5188 31.8187 36.8743 33.0177 35.9452 33.7871C36.1086 32.7796 36.1926 31.751 36.1926 30.7127C36.1926 30.1544 36.185 29.36 36.1287 28.5225C36.3932 28.6024 36.6312 28.736 36.8357 28.9212C37.2763 29.3201 37.5188 29.935 37.5188 30.6526ZM24.2831 9.30373C30.932 9.30373 36.3412 14.4067 36.3412 20.6794C36.3412 21.4129 36.2568 22.1936 36.0968 23.0009C32.8078 20.9781 28.6656 19.8747 24.2831 19.8747C19.9015 19.8747 15.7593 20.9786 12.4701 23.0025C12.3097 22.1946 12.225 21.4132 12.225 20.6794C12.225 14.4069 17.6341 9.30373 24.2831 9.30373ZM11.0507 30.6526C11.0507 29.944 11.2875 29.3342 11.7175 28.9355C11.9156 28.7517 12.1468 28.6172 12.4041 28.534C12.3766 29.3554 12.3767 30.0844 12.377 30.599V30.7127C12.377 31.7509 12.461 32.7795 12.6242 33.787C11.6952 33.0175 11.0507 31.8186 11.0507 30.6526ZM14.13 31.1959C14.6593 31.9821 15.2365 32.7386 15.8555 33.4495C16.1501 33.7879 16.6532 33.8475 17.0188 33.5871C19.1276 32.085 21.6395 31.2909 24.2831 31.2909C26.929 31.2909 29.4421 32.0849 31.5508 33.5871C31.7036 33.6959 31.8805 33.7487 32.0561 33.7487C32.3006 33.7487 32.5427 33.6462 32.7141 33.4494C33.3331 32.7384 33.9102 31.9816 34.4396 31.195C34.3426 34.7316 33.1846 38.1135 31.149 40.7645C29.1757 43.334 26.6732 44.8077 24.2831 44.8077C21.8932 44.8077 19.3913 43.3341 17.4191 40.7646C15.3846 38.1142 14.2271 34.7325 14.13 31.1959ZM33.1335 56.1075H15.4361V46.1666C15.8011 45.9612 16.1655 45.7564 16.5291 45.552C17.1932 49.238 20.421 52.0439 24.2936 52.0439C28.1637 52.0439 31.39 49.2441 32.0595 45.5642C32.4168 45.7647 32.7748 45.9662 33.1335 46.1679V56.1075ZM56.9038 23.0922C56.6338 22.955 56.3113 22.9679 56.053 23.1262C55.7946 23.2847 55.637 23.5662 55.637 23.8694V27.4166C55.637 28.7026 54.5906 29.749 53.3046 29.749C52.0185 29.749 50.9721 28.7026 50.9721 27.4166V23.8694C50.9721 23.5662 50.8146 23.2847 50.5561 23.1262C50.2976 22.9676 49.9753 22.955 49.7052 23.0922C47.0182 24.4585 45.349 27.1779 45.349 30.1892C45.349 32.6984 46.5238 35.0381 48.5142 36.5387V59.1471C48.5142 61.7886 50.6631 63.9375 53.3046 63.9375C55.948 63.9375 58.0983 61.7886 58.0983 59.1471V36.5382C60.0866 35.037 61.2601 32.6976 61.2601 30.1892C61.2601 27.178 59.5908 24.4586 56.9038 23.0922ZM56.7433 35.3629C56.5006 35.5245 56.3548 35.7969 56.3548 36.0884V59.147C56.3548 60.827 54.9865 62.1939 53.3046 62.1939C51.6246 62.1939 50.2577 60.8271 50.2577 59.147V36.0885C50.2577 35.7966 50.1116 35.5241 49.8686 35.3626C48.1303 34.2069 47.0925 32.2729 47.0925 30.1894C47.0925 28.3561 47.8848 26.6614 49.2286 25.4976V27.4167C49.2286 29.6642 51.0571 31.4926 53.3046 31.4926C55.5521 31.4926 57.3805 29.6641 57.3805 27.4167V25.4975C58.7242 26.6614 59.5166 28.3561 59.5166 30.1892C59.5166 32.2722 58.4798 34.2062 56.7433 35.3629ZM61.2136 13.2985L59.4161 11.8704C59.4321 11.6341 59.4387 11.398 59.4358 11.163L61.3053 9.82748C61.6286 9.5966 61.7548 9.17648 61.6125 8.80573L60.403 5.65473C60.2608 5.28435 59.8868 5.05735 59.4923 5.10073L57.2046 5.35623C57.0485 5.17785 56.8871 5.00735 56.7212 4.84573L57.0997 2.5776C57.1652 2.18548 56.9572 1.79898 56.594 1.63748L53.5066 0.265102C53.1437 0.103602 52.7176 0.208227 52.4703 0.518852L51.0406 2.3156C50.8038 2.30023 50.5677 2.2941 50.3345 2.2971L48.999 0.427602C48.7683 0.104477 48.3483 -0.0220227 47.9772 0.120477L44.8261 1.3301C44.4557 1.47223 44.228 1.8466 44.2721 2.24085L44.5276 4.52548C44.351 4.68048 44.1807 4.84185 44.0178 5.00898L41.7478 4.6331C41.3563 4.56835 40.9702 4.7761 40.809 5.13873L39.4368 8.2226C39.2753 8.58535 39.3795 9.0111 39.6898 9.2586L41.4858 10.6907C41.4706 10.9244 41.4647 11.1599 41.4682 11.3962L39.5986 12.7346C39.276 12.9656 39.15 13.3854 39.2922 13.7559L40.5017 16.907C40.644 17.2779 41.0197 17.5046 41.4136 17.4609L43.6965 17.2027C43.8496 17.3775 44.0113 17.548 44.1808 17.7137L43.8047 19.9815C43.7398 20.3729 43.9473 20.7587 44.3096 20.9202L47.3936 22.296C47.7568 22.4581 48.1832 22.3539 48.4308 22.0429L49.863 20.244C50.0942 20.2592 50.329 20.2657 50.5656 20.2627L51.9022 22.134C52.0695 22.3682 52.3363 22.4991 52.6118 22.4991C52.7161 22.4991 52.8217 22.4802 52.9236 22.4412L56.0782 21.2317C56.4492 21.0896 56.6771 20.7145 56.6325 20.3197L56.3741 18.0352C56.5515 17.8795 56.7225 17.7175 56.8861 17.5497L59.1522 17.9284C59.5441 17.9937 59.9306 17.7861 60.0922 17.4234L61.468 14.3359C61.6293 13.9726 61.5248 13.5457 61.2136 13.2985ZM58.7738 16.0975L56.7088 15.7525C56.4108 15.7024 56.1075 15.8111 55.9083 16.0392C55.6118 16.379 55.2777 16.6961 54.9153 16.9815C54.6782 17.1682 54.5546 17.4644 54.5885 17.7644L54.8238 19.8455L52.9287 20.572L51.7115 18.8679C51.5472 18.638 51.2826 18.5029 51.0022 18.5029C50.9841 18.5029 50.9657 18.5035 50.9473 18.5046C50.4795 18.5342 50.0197 18.5215 49.5816 18.4671C49.2805 18.4306 48.9813 18.5519 48.7922 18.7894L47.487 20.429L45.6346 19.6026L45.9772 17.5369C46.0265 17.2401 45.9191 16.9389 45.6933 16.74C45.3418 16.4302 45.0258 16.0966 44.7546 15.7481C44.5682 15.5086 44.2703 15.3834 43.9688 15.4175L41.8875 15.6529L41.1612 13.7605L42.8661 12.54C43.1122 12.3639 43.2493 12.0724 43.2283 11.7704C43.1962 11.3107 43.2077 10.8532 43.2627 10.4106C43.3 10.1095 43.1782 9.81073 42.9411 9.62173L41.3037 8.31573L42.128 6.46335L44.1968 6.80585C44.4946 6.8556 44.7978 6.74648 44.9965 6.5186C45.2917 6.17973 45.6243 5.86435 45.9848 5.58098C46.2222 5.39448 46.3461 5.09848 46.3126 4.7986L46.0797 2.7166L47.9723 1.9901L49.1893 3.69398C49.3655 3.94073 49.6581 4.07685 49.9595 4.05698C50.4041 4.0256 50.8646 4.0376 51.3283 4.0921C51.628 4.12785 51.9242 4.00498 52.1121 3.7691L53.4146 2.13248L55.2687 2.9566L54.9237 5.02435C54.8736 5.32435 54.9836 5.62885 55.2137 5.8276C55.5445 6.11335 55.859 6.44498 56.1485 6.81335C56.3348 7.05085 56.631 7.17523 56.9307 7.14123L59.0165 6.90823L59.7428 8.80085L58.039 10.018C57.7922 10.1941 57.6548 10.4859 57.676 10.7884C57.7073 11.2365 57.6947 11.6951 57.6381 12.1512C57.6007 12.4527 57.723 12.7521 57.961 12.9411L59.6 14.2432L58.7738 16.0975ZM52.3652 6.9886C51.2197 6.47698 49.9433 6.44248 48.7712 6.89135C47.5981 7.34098 46.6707 8.2206 46.1606 9.36723C45.6485 10.513 45.6137 11.7895 46.0628 12.9616C46.5125 14.1349 47.3921 15.0622 48.54 15.5731C49.1596 15.849 49.8076 15.9795 50.4458 15.9795C52.2462 15.9794 53.9672 14.9402 54.7448 13.1931C55.7985 10.8252 54.7311 8.04185 52.3652 6.9886ZM53.1517 12.4842C52.4893 13.9724 50.7386 14.6436 49.2487 13.9804C48.5268 13.6591 47.9737 13.0759 47.6908 12.338C47.4086 11.6012 47.4303 10.7989 47.7527 10.0775C48.074 9.3556 48.6571 8.80248 49.395 8.5196C49.7381 8.3881 50.0955 8.3226 50.4521 8.3226C50.8612 8.3226 51.2696 8.40885 51.6545 8.58085C51.6548 8.58098 51.6552 8.5811 51.6556 8.58135C53.1436 9.2436 53.8148 10.9945 53.1517 12.4842ZM54.1763 45.1139V52.3037C54.1763 52.7852 53.7861 53.1755 53.3046 53.1755C52.8231 53.1755 52.4328 52.7852 52.4328 52.3037V45.1139C52.4328 44.6324 52.8231 44.2421 53.3046 44.2421C53.7861 44.2421 54.1763 44.6324 54.1763 45.1139Z" fill="#008080"/>
</svg>
