<svg width="32" height="32" viewBox="0 0 32 32" fill="none" xmlns="http://www.w3.org/2000/svg">
<path d="M30.2763 4.43299C29.8467 3.08448 29.2643 2.11894 29.2396 2.07836C29.1442 1.9213 28.9476 1.8396 28.7695 1.88036C28.7234 1.89087 27.6238 2.14702 26.3553 2.77924C24.6428 3.63247 23.4466 4.77156 22.8955 6.07278C22.4368 7.15644 22.3709 8.48121 22.6964 9.94475C22.0032 9.17213 21.2234 8.49625 20.3733 7.92725C20.1137 7.41549 19.4274 6.15557 18.3545 4.83877C18.001 4.40527 17.3212 4.94927 17.6783 5.38712C18.4013 6.27459 18.9455 7.14738 19.2858 7.747L15.3173 6.97493L11.5467 1.84232C11.9129 1.84739 12.2803 1.88271 12.6458 1.95427C13.8048 2.18071 14.9497 2.76982 16.0492 3.70493C16.4799 4.0714 17.0393 3.4044 16.6142 3.043C15.3997 2.01006 14.1209 1.35646 12.8132 1.10086C10.817 0.711016 8.48885 1.22277 6.07972 2.58142C4.28413 3.59407 3.08338 4.70635 3.03328 4.75308C2.87263 4.9029 2.84704 5.17499 2.98154 5.34998C3.15762 5.71048 3.82489 7.01097 4.93561 8.41111C5.59035 9.23662 6.28085 9.94312 6.99513 10.5237C6.79219 10.6935 6.5947 10.871 6.40356 11.0578C5.38269 12.0543 4.60106 13.2298 4.08791 14.5149C3.63429 15.6503 3.39033 16.8719 3.37671 18.1309C3.3542 20.1897 3.95195 22.1753 5.10569 23.8734C6.23275 25.5321 7.80834 26.8056 9.66202 27.5561C10.1808 27.7657 10.5088 26.9604 9.98966 26.7503C9.31804 26.4784 8.68707 26.13 8.10512 25.7157C8.17954 25.3038 8.35217 23.8212 7.36543 22.2865C7.22729 22.0719 7.64025 21.2288 7.88675 20.7252C8.14124 20.2062 8.4039 19.6696 8.52661 19.1643C8.65694 18.6276 8.51027 18.1771 8.10276 17.861C7.80362 17.6289 7.41208 17.5088 7.06701 17.4028C6.84283 17.334 6.58871 17.2561 6.49795 17.1805C6.31098 17.0242 6.00566 16.4465 5.76025 15.9826C5.48797 15.4679 5.22876 14.9781 4.9641 14.6765C5.55967 13.2649 6.51628 12.0159 7.71431 11.0603C8.80869 11.8043 10.0577 12.3177 11.3854 12.4217C9.84571 13.6122 9.34762 15.1326 10.0595 16.5931C10.8909 18.2984 12.6021 18.026 14.1118 17.786C14.373 17.7443 14.6433 17.7014 14.9021 17.6691C14.9992 17.657 15.0285 17.6834 15.0481 17.7006C15.3786 17.9941 15.3688 19.3957 15.3617 20.4192C15.3521 21.8349 15.343 23.1722 15.8714 23.8587C16.141 24.2087 16.5206 24.3877 16.9655 24.3877C17.2321 24.3877 17.5218 24.3236 17.8257 24.1935C19.1397 23.6319 20.5056 21.9418 20.2973 20.6045C20.1152 19.4354 19.9947 18.6629 20.2787 18.0403C20.5414 17.464 21.1764 16.9306 22.4268 16.2498C22.5766 16.9228 22.6521 17.6229 22.6443 18.3412C22.6176 20.7929 21.6356 23.0876 19.8794 24.8022C17.9166 26.7184 15.1581 27.6648 12.4293 27.3646C11.8733 27.3045 11.7773 28.1678 12.334 28.2291C15.3209 28.5573 18.3408 27.5211 20.4886 25.4239C22.4114 23.5466 23.4864 21.0348 23.5156 18.3504C23.5544 14.7913 21.7245 11.6382 18.9389 9.82174C19.5145 9.41216 19.9433 9.058 20.1811 8.85239C21.1967 9.57954 22.0976 10.4753 22.8471 11.519C24.6463 14.0249 25.3598 17.0796 24.8567 20.1212C23.8175 26.3998 17.854 30.6647 11.5616 29.6272C8.51372 29.1249 5.84447 27.4684 4.04525 24.9625C2.24585 22.4568 1.53229 19.4017 2.03565 16.3603C2.12604 15.813 1.26691 15.6694 1.17615 16.2186C0.634676 19.4893 1.40232 22.7745 3.33678 25.4692C5.2716 28.1635 8.14233 29.9449 11.4197 30.4853C12.1051 30.5982 12.7912 30.654 13.4727 30.654C16.0484 30.654 18.5541 29.8558 20.6893 28.3289C23.3898 26.398 25.1751 23.5336 25.7162 20.2629C26.1128 17.8662 25.8058 15.4618 24.8525 13.2876C25.2925 13.158 26.0413 12.9066 26.8614 12.4979C28.5735 11.6447 29.7699 10.5056 30.3208 9.20438C30.8722 7.90279 30.8568 6.25285 30.2763 4.43299ZM4.98952 16.3884C5.31371 17.0017 5.6203 17.5814 5.93886 17.8474C6.16449 18.0356 6.47852 18.132 6.81089 18.2339C7.6624 18.4952 7.76132 18.6234 7.67964 18.9595C7.57944 19.3727 7.33766 19.8661 7.10404 20.3431C6.65405 21.2619 6.22912 22.1293 6.63191 22.7561C7.20315 23.6444 7.30099 24.5191 7.29119 25.0631C4.69618 22.7278 3.63955 19.0394 4.60615 15.6869C4.7343 15.9061 4.86899 16.1608 4.98952 16.3884ZM26.0685 7.84392L24.8304 4.84946C25.4328 4.28716 26.1318 3.86398 26.7272 3.56599C27.2344 3.31201 27.7169 3.12216 28.1039 2.98757L26.0685 7.84392ZM28.9071 3.32469C29.0801 3.69569 29.2807 4.17412 29.452 4.71486C29.6399 5.30832 29.8123 6.0438 29.8467 6.81098L26.9451 8.00569L28.9071 3.32469ZM23.698 6.41136C23.8265 6.10811 23.9926 5.82696 24.1845 5.56737L25.594 8.97576L24.3292 11.9941C24.1515 11.6179 23.9422 11.1237 23.7646 10.5623C23.4083 9.43824 23.1077 7.80533 23.698 6.41136ZM26.4893 11.7112C26.0012 11.9557 25.5354 12.1409 25.156 12.2744L26.4686 9.14278L29.8096 7.76693C29.7612 8.14046 29.6688 8.51074 29.5183 8.8658C28.9282 10.2598 27.5453 11.1827 26.4893 11.7112ZM10.7793 11.4637C10.6253 11.4336 10.4734 11.3969 10.3237 11.355L15.1455 7.82761L19.1159 8.59987C17.6696 9.73715 14.1497 12.1228 10.7793 11.4637ZM6.37252 8.74334C5.3413 7.63414 4.58545 6.44813 4.15144 5.68874L9.20404 6.67186L6.37252 8.74334ZM7.26487 2.94228L9.37885 5.81989L4.29357 4.83062C4.93379 4.32611 5.9906 3.56871 7.26487 2.94228ZM10.6393 6.06517L8.07644 2.57635C8.84373 2.26169 9.66728 2.01405 10.5115 1.90391L14.057 6.72983L10.6393 6.06517ZM10.3681 6.8983L13.9816 7.60117L9.34399 10.9936C8.46943 10.5906 7.68236 10.011 6.99368 9.36687L10.3681 6.8983ZM22.1901 15.3889C20.6195 16.2241 19.8504 16.88 19.4855 17.6802C19.0936 18.5394 19.2372 19.4616 19.4359 20.738C19.5534 21.4907 18.657 22.8923 17.4826 23.3943C17.0481 23.58 16.7386 23.558 16.5623 23.3289C16.2162 22.8793 16.2256 21.5184 16.233 20.4252C16.2434 18.9125 16.2525 17.6063 15.6271 17.051C15.4022 16.8514 15.1145 16.767 14.7949 16.8061C14.5209 16.8402 14.243 16.8844 13.9746 16.9271C12.373 17.1818 11.3652 17.2838 10.8432 16.2126C9.99728 14.4777 11.7096 13.1926 12.485 12.7207C12.6429 12.6247 12.7894 12.5115 12.9256 12.3854C14.7998 12.1619 16.5707 11.3594 18.1488 10.3542C20.041 11.4824 21.4935 13.2678 22.1901 15.3889Z" fill="#008080"/>
</svg>
