<svg width="64" height="64" viewBox="0 0 64 64" fill="none" xmlns="http://www.w3.org/2000/svg">
<path d="M6.69092 44.2182L19.7818 28.3151L24.8243 32.6788L11.7333 48.5818L6.69092 44.2182Z" stroke="#008080" stroke-width="2" stroke-miterlimit="10" stroke-linecap="round" stroke-linejoin="round"/>
<path d="M31.0304 56.8243L32.5819 58.0849C33.5516 58.8606 33.6485 60.2182 32.8728 61.1879C32.097 62.1576 30.7395 62.2546 29.7698 61.4788L19.2001 52.9455C18.7152 52.5576 18.0364 51.8788 17.3576 51.2C16.5819 50.4243 13.7698 47.6121 13.2849 46.6424L23.2728 34.4243L24.9213 35.7818C25.3092 36.1697 25.891 36.2667 26.3758 36.2667C26.9576 36.1697 27.4425 36.3637 27.8304 36.7515L28.2182 37.0424" stroke="#008080" stroke-width="2" stroke-miterlimit="10" stroke-linecap="round" stroke-linejoin="round"/>
<path d="M35.6848 49.1637L42.5697 54.8849C43.5394 55.6606 44.897 55.5637 45.6727 54.594C46.4485 53.6243 46.3515 52.2667 45.3818 51.4909L32.7758 41.1152" stroke="#008080" stroke-width="2" stroke-miterlimit="10" stroke-linecap="round" stroke-linejoin="round"/>
<path d="M33.4546 53.1394L36.4606 55.5636C37.4303 56.3394 37.5273 57.697 36.7515 58.6667C35.9758 59.6364 34.6182 59.7333 33.6485 58.9576L30.6425 56.5333" stroke="#008080" stroke-width="2" stroke-miterlimit="10" stroke-linecap="round" stroke-linejoin="round"/>
<path d="M36.9455 50.2303L40.6304 53.2363C41.6001 54.0121 41.697 55.3697 40.9213 56.3394C40.1455 57.3091 38.7879 57.406 37.8182 56.6303L34.7152 54.0121" stroke="#008080" stroke-width="2" stroke-miterlimit="10" stroke-linecap="round" stroke-linejoin="round"/>
<path d="M32.5818 41.4061L32.7757 42.2788C33.3576 44.6061 32 47.0303 29.7697 47.8061L27.8303 42.0849C27.1515 40.1455 27.8303 38.0121 29.4788 36.7515L32.3879 34.6182C33.3576 33.9394 34.5212 33.5515 35.7818 33.5515H36.8485C37.9151 33.5515 39.0788 33.2606 39.9515 32.6788L41.0182 32" stroke="#008080" stroke-width="2" stroke-miterlimit="10" stroke-linecap="round" stroke-linejoin="round"/>
<path d="M54.8849 46.8364L48.6788 50.0364L40.2424 29.9636L46.4485 26.8606L54.8849 46.8364Z" stroke="#008080" stroke-width="2" stroke-miterlimit="10" stroke-linecap="round" stroke-linejoin="round"/>
<path d="M48.291 48.7758L44.7031 50.2303" stroke="#008080" stroke-width="2" stroke-miterlimit="10" stroke-linecap="round" stroke-linejoin="round"/>
<path d="M36.7515 5.04242H49.4545C50.5211 5.04242 51.1999 5.91515 51.1999 6.88484C51.1999 7.85454 51.9757 8.6303 52.9454 8.6303C53.5272 8.6303 54.109 8.33939 54.3999 7.85454C54.6908 7.27272 55.3696 6.98181 55.9514 6.98181C57.406 6.98181 58.2787 8.53333 57.503 9.79394C56.5333 11.3455 54.7878 12.4121 52.8484 12.4121C50.5211 12.4121 48.4848 10.9576 47.806 8.82424H36.2666" stroke="#008080" stroke-width="2" stroke-miterlimit="10" stroke-linecap="round" stroke-linejoin="round"/>
<path d="M27.5394 8.72725H16.7757C16 10.7636 14.0606 12.3151 11.7333 12.3151C9.79392 12.3151 8.14543 11.3454 7.17573 9.89089C6.39998 8.72725 7.17573 7.07877 8.63028 6.9818C9.30907 6.88483 9.98785 7.27271 10.3757 7.85453C10.6666 8.33937 11.2485 8.63028 11.9272 8.63028C12.703 8.53331 13.3818 7.75756 13.3818 6.78786C13.3818 5.81816 14.2545 4.94543 15.2242 4.94543H27.4424" stroke="#008080" stroke-width="2" stroke-miterlimit="10" stroke-linecap="round" stroke-linejoin="round"/>
<path d="M2.52124 18.9091C5.91518 26.3757 16.7758 26.2788 20.2667 18.9091H2.52124Z" stroke="#008080" stroke-width="2" stroke-miterlimit="10" stroke-linecap="round" stroke-linejoin="round"/>
<path d="M43.7334 18.9091C47.1273 26.3757 57.9879 26.2788 61.4789 18.9091H43.7334Z" stroke="#008080" stroke-width="2" stroke-miterlimit="10" stroke-linecap="round" stroke-linejoin="round"/>
<path d="M4.65454 18.9091L11.7333 12.3151L17.6485 18.9091" stroke="#008080" stroke-width="2" stroke-miterlimit="10" stroke-linecap="round" stroke-linejoin="round"/>
<path d="M47.0303 18.8121L52.8485 12.3151L58.2788 18.9091" stroke="#008080" stroke-width="2" stroke-miterlimit="10" stroke-linecap="round" stroke-linejoin="round"/>
<path d="M34.8121 10.5697L36.2667 33.5515" stroke="#008080" stroke-width="2" stroke-miterlimit="10" stroke-linecap="round" stroke-linejoin="round"/>
<path d="M27.5394 36.1697L29.1879 10.8606" stroke="#008080" stroke-width="2" stroke-miterlimit="10" stroke-linecap="round" stroke-linejoin="round"/>
<path d="M36.7516 6.69091C36.7516 9.30909 34.6182 11.4424 32.0001 11.4424C29.3819 11.4424 27.2485 9.30909 27.2485 6.69091C27.1516 4.07273 29.2849 1.93939 31.9031 1.93939C34.5213 1.93939 36.7516 4.07273 36.7516 6.69091Z" stroke="#008080" stroke-width="2" stroke-miterlimit="10" stroke-linecap="round" stroke-linejoin="round"/>
</svg>
