<svg width="64" height="64" viewBox="0 0 64 64" fill="none" xmlns="http://www.w3.org/2000/svg">
<path d="M22 23H15V16C15 15.7348 14.8946 15.4804 14.7071 15.2929C14.5196 15.1054 14.2652 15 14 15C12.22 15 10.4799 15.5278 8.99987 16.5168C7.51983 17.5057 6.36628 18.9113 5.68509 20.5558C5.0039 22.2004 4.82567 24.01 5.17294 25.7558C5.5202 27.5016 6.37737 29.1053 7.63604 30.364C8.89472 31.6226 10.4984 32.4798 12.2442 32.8271C13.99 33.1743 15.7996 32.9961 17.4442 32.3149C19.0887 31.6337 20.4943 30.4802 21.4832 29.0001C22.4722 27.5201 23 25.78 23 24C23 23.7348 22.8946 23.4804 22.7071 23.2929C22.5196 23.1054 22.2652 23 22 23ZM13 17.071V23.586L8.4 28.186C7.66985 27.2155 7.20536 26.0714 7.05238 24.8665C6.8994 23.6617 7.0632 22.4378 7.52763 21.3156C7.99205 20.1934 8.74106 19.2117 9.70072 18.4673C10.6604 17.723 11.7976 17.2417 13 17.071ZM14 31C12.4903 30.9999 11.0217 30.5085 9.816 29.6L14.416 25H20.931C20.6883 26.6655 19.8545 28.1881 18.582 29.2897C17.3095 30.3913 15.6831 30.9984 14 31Z" fill="#008080"/>
<path d="M18 21H26C26.2652 21 26.5196 20.8946 26.7071 20.7071C26.8946 20.5196 27 20.2652 27 20C26.9971 17.6139 26.0479 15.3265 24.3607 13.6393C22.6735 11.9521 20.3861 11.0029 18 11C17.7348 11 17.4804 11.1054 17.2929 11.2929C17.1054 11.4804 17 11.7348 17 12V20C17 20.2652 17.1054 20.5196 17.2929 20.7071C17.4804 20.8946 17.7348 21 18 21ZM19 13.071C20.4948 13.2895 21.8791 13.9845 22.9473 15.0527C24.0155 16.1209 24.7105 17.5052 24.929 19H19V13.071Z" fill="#008080"/>
<path d="M39 26C36.4288 26 33.9154 26.7624 31.7776 28.1909C29.6398 29.6194 27.9735 31.6497 26.9896 34.0251C26.0056 36.4006 25.7482 39.0144 26.2498 41.5362C26.7514 44.0579 27.9895 46.3743 29.8076 48.1924C31.6257 50.0105 33.9421 51.2486 36.4638 51.7502C38.9856 52.2518 41.5995 51.9944 43.9749 51.0104C46.3503 50.0265 48.3807 48.3603 49.8091 46.2224C51.2376 44.0846 52 41.5712 52 39C51.996 35.5534 50.6251 32.2491 48.188 29.812C45.7509 27.3749 42.4466 26.004 39 26ZM34 35V29.214C34.6393 28.8865 35.3092 28.6226 36 28.426V35H34ZM46 37V39H32V37H46ZM42 35V28.426C42.6909 28.6226 43.3607 28.8865 44 29.214V35H42ZM40 28.051V35H38V28.051C38.33 28.021 38.662 28 39 28C39.338 28 39.67 28.021 40 28.051ZM32 30.521V35H31C30.7348 35 30.4804 35.1054 30.2929 35.2929C30.1054 35.4804 30 35.7348 30 36V40C30 40.2652 30.1054 40.5196 30.2929 40.7071C30.4804 40.8946 30.7348 41 31 41H47C47.2652 41 47.5196 40.8946 47.7071 40.7071C47.8947 40.5196 48 40.2652 48 40V36C48 35.7348 47.8947 35.4804 47.7071 35.2929C47.5196 35.1054 47.2652 35 47 35H46V30.521C47.7903 31.9912 49.0681 33.9913 49.6496 36.2337C50.231 38.4761 50.0862 40.8451 49.236 43H28.764C27.9138 40.8451 27.769 38.4761 28.3505 36.2337C28.9319 33.9913 30.2097 31.9912 32 30.521ZM39 50C37.1704 49.9981 35.3702 49.5398 33.7624 48.6668C32.1546 47.7937 30.7899 46.5334 29.792 45H48.208C47.2101 46.5334 45.8454 47.7937 44.2376 48.6668C42.6298 49.5398 40.8296 49.9981 39 50Z" fill="#008080"/>
<path d="M61.671 55.257L57.345 50.931C57.545 50.5544 57.6194 50.1237 57.5573 49.7019C57.4952 49.28 57.3 48.889 57 48.586L54.455 46.041C55.6807 43.3764 56.1912 40.4385 55.9361 37.5167C55.6809 34.5948 54.669 31.7898 53 29.378V4C53 3.20435 52.6839 2.44129 52.1213 1.87868C51.5587 1.31607 50.7957 1 50 1H4C3.20435 1 2.44129 1.31607 1.87868 1.87868C1.31607 2.44129 1 3.20435 1 4V42C1 42.7957 1.31607 43.5587 1.87868 44.1213C2.44129 44.6839 3.20435 45 4 45H23.114C23.9295 47.1795 25.1854 49.1676 26.8034 50.8402C28.4215 52.5127 30.3669 53.8338 32.5182 54.721C34.6695 55.6082 36.9807 56.0425 39.3073 55.9967C41.634 55.9509 43.9262 55.4261 46.041 54.455L48.586 57C48.8867 57.3039 49.2779 57.5019 49.7009 57.5641C50.1238 57.6264 50.5556 57.5494 50.931 57.345L55.257 61.671C56.1075 62.5215 57.2611 62.9994 58.464 62.9994C59.6669 62.9994 60.8205 62.5215 61.671 61.671C62.5215 60.8205 62.9994 59.6669 62.9994 58.464C62.9994 57.2611 62.5215 56.1075 61.671 55.257ZM4 3H50C50.2652 3 50.5196 3.10536 50.7071 3.29289C50.8946 3.48043 51 3.73478 51 4V7H3V4C3 3.73478 3.10536 3.48043 3.29289 3.29289C3.48043 3.10536 3.73478 3 4 3ZM4 43C3.73478 43 3.48043 42.8946 3.29289 42.7071C3.10536 42.5196 3 42.2652 3 42V9H51V26.971C49.5528 25.5329 47.8593 24.366 46 23.526V12C46 11.7348 45.8946 11.4804 45.7071 11.2929C45.5196 11.1054 45.2652 11 45 11H41C40.7348 11 40.4804 11.1054 40.2929 11.2929C40.1054 11.4804 40 11.7348 40 12V22.051C39.667 22.031 39.338 22 39 22C38.662 22 38.333 22.031 38 22.051V18C38 17.7348 37.8946 17.4804 37.7071 17.2929C37.5196 17.1054 37.2652 17 37 17H33C32.7348 17 32.4804 17.1054 32.2929 17.2929C32.1054 17.4804 32 17.7348 32 18V23.526C28.3835 25.1418 25.4503 27.9778 23.7136 31.5378C21.9769 35.0979 21.5473 39.1552 22.5 43H4ZM44 22.753C43.3436 22.555 42.6757 22.3974 42 22.281V13H44V22.753ZM36 22.281C35.3243 22.3974 34.6564 22.555 34 22.753V19H36V22.281ZM24 39C24 36.0333 24.8797 33.1332 26.528 30.6664C28.1762 28.1997 30.5189 26.2771 33.2598 25.1418C36.0006 24.0065 39.0166 23.7094 41.9264 24.2882C44.8361 24.867 47.5088 26.2956 49.6066 28.3934C51.7044 30.4912 53.133 33.1639 53.7118 36.0736C54.2906 38.9834 53.9935 41.9994 52.8582 44.7402C51.7229 47.4811 49.8003 49.8238 47.3336 51.472C44.8668 53.1203 41.9667 54 39 54C35.0231 53.9955 31.2104 52.4137 28.3984 49.6016C25.5863 46.7896 24.0045 42.9769 24 39ZM47.882 53.468C50.1545 52.0675 52.0675 50.1545 53.468 47.882L55.586 50L50 55.586L47.882 53.468ZM58.464 61C58.1309 61.0008 57.8009 60.9356 57.4931 60.808C57.1853 60.6805 56.9059 60.4932 56.671 60.257L52.414 56L56 52.414L60.257 56.671C60.6116 57.0257 60.853 57.4775 60.9509 57.9694C61.0487 58.4613 60.9984 58.9711 60.8065 59.4344C60.6146 59.8978 60.2897 60.2938 59.8727 60.5725C59.4557 60.8511 58.9655 60.9999 58.464 61Z" fill="#008080"/>
<path d="M18 35H6C5.73478 35 5.48043 35.1054 5.29289 35.2929C5.10536 35.4804 5 35.7348 5 36V40C5 40.2652 5.10536 40.5196 5.29289 40.7071C5.48043 40.8946 5.73478 41 6 41H18C18.2652 41 18.5196 40.8946 18.7071 40.7071C18.8946 40.5196 19 40.2652 19 40V36C19 35.7348 18.8946 35.4804 18.7071 35.2929C18.5196 35.1054 18.2652 35 18 35ZM17 39H7V37H17V39Z" fill="#008080"/>
</svg>
