<svg width="30" height="29" viewBox="0 0 30 29" fill="none" xmlns="http://www.w3.org/2000/svg">
<ellipse cx="15" cy="14.5932" rx="15" ry="14.3193" fill="#F5FAFF"/>
<g clip-path="url(#clip0_109_258)">
<path d="M22.01 11.0122C21.0969 11.0122 20.2544 10.7097 19.5778 10.1994C18.8019 9.61439 18.2444 8.75627 18.0475 7.76721C17.9987 7.52283 17.9725 7.27064 17.97 7.01221H15.3615V14.1397L15.3584 18.0438C15.3584 19.0875 14.6787 19.9725 13.7365 20.2838C13.4631 20.3741 13.1678 20.4169 12.8603 20.4C12.4678 20.3785 12.1 20.26 11.7803 20.0688C11.1 19.6619 10.6387 18.9238 10.6262 18.0794C10.6065 16.7597 11.6734 15.6838 12.9922 15.6838C13.2525 15.6838 13.5025 15.7263 13.7365 15.8035V13.8553V13.155C13.4897 13.1185 13.2384 13.0994 12.9843 13.0994C11.5409 13.0994 10.1909 13.6994 9.22591 14.7803C8.49654 15.5972 8.05904 16.6394 7.99154 17.7322C7.9031 19.1678 8.42841 20.5325 9.44716 21.5394C9.59685 21.6872 9.75404 21.8244 9.91841 21.951C10.7918 22.6231 11.8597 22.9875 12.9843 22.9875C13.2384 22.9875 13.4897 22.9688 13.7365 22.9322C14.7872 22.7766 15.7565 22.2956 16.5215 21.5394C17.4615 20.6103 17.9809 19.3769 17.9865 18.0641L17.9731 12.2341C18.4215 12.58 18.9118 12.8663 19.4381 13.0885C20.2565 13.4338 21.1244 13.6088 22.0175 13.6085V11.7144V11.0116C22.0181 11.0122 22.0106 11.0122 22.01 11.0122Z" fill="#008080"/>
</g>
<defs>
<clipPath id="clip0_109_258">
<rect width="16" height="16" fill="white" transform="translate(7 7)"/>
</clipPath>
</defs>
</svg>
