<svg width="30" height="29" viewBox="0 0 30 29" fill="none" xmlns="http://www.w3.org/2000/svg">
<ellipse cx="15" cy="14.3193" rx="15" ry="14.3193" fill="#F5FAFF"/>
<path fill-rule="evenodd" clip-rule="evenodd" d="M11.7601 9C9.55093 9 7.76007 10.7909 7.76007 13V17C7.76007 19.2091 9.55093 21 11.7601 21H18.24C20.4491 21 22.24 19.2091 22.24 17V13C22.24 10.7909 20.4491 9 18.24 9H11.7601ZM16.5445 14.1056L14.4473 13.0569C13.7824 12.7245 13 13.208 13 13.9514V16.0486C13 16.792 13.7824 17.2755 14.4473 16.9431L16.5445 15.8944C17.2816 15.5259 17.2816 14.4741 16.5445 14.1056Z" fill="#008080"/>
</svg>
